<svg xmlns="http://www.w3.org/2000/svg" xmlns:xlink="http://www.w3.org/1999/xlink" width="200" zoomAndPan="magnify" viewBox="0 0 150 37.5" height="50" preserveAspectRatio="xMidYMid meet" version="1.2"><defs><clipPath id="a5cdfc5a0a"><path d="M 2.023438 16.914062 L 44.4375 16.914062 L 44.4375 35.761719 L 2.023438 35.761719 Z M 2.023438 16.914062 "/></clipPath><clipPath id="b322c1894a"><path d="M 2.023438 0.796875 L 44 0.796875 L 44 13 L 2.023438 13 Z M 2.023438 0.796875 "/></clipPath><clipPath id="62f0dc1381"><path d="M 37 7 L 44 7 L 44 25.929688 L 37 25.929688 Z M 37 7 "/></clipPath></defs><g id="b20cbf4752"><g style="fill:#292c56;fill-opacity:1;"><g transform="translate(46.769457, 24.794408)"><path style="stroke:none" d="M 0.464844 -2.179688 C 1.925781 -0.71875 4.058594 0.277344 7.027344 0.277344 C 11.199219 0.277344 13.21875 -1.855469 13.21875 -4.683594 C 13.21875 -8.117188 9.972656 -8.882812 7.421875 -9.460938 C 5.632812 -9.878906 4.335938 -10.203125 4.335938 -11.246094 C 4.335938 -12.175781 5.125 -12.824219 6.609375 -12.824219 C 8.117188 -12.824219 9.785156 -12.289062 11.039062 -11.128906 L 12.871094 -13.542969 C 11.339844 -14.957031 9.296875 -15.699219 6.839844 -15.699219 C 3.199219 -15.699219 0.972656 -13.613281 0.972656 -11.039062 C 0.972656 -7.582031 4.21875 -6.886719 6.746094 -6.308594 C 8.535156 -5.890625 9.878906 -5.496094 9.878906 -4.335938 C 9.878906 -3.453125 8.996094 -2.597656 7.1875 -2.597656 C 5.054688 -2.597656 3.363281 -3.546875 2.273438 -4.683594 Z M 0.464844 -2.179688 "/></g></g><g style="fill:#292c56;fill-opacity:1;"><g transform="translate(60.681651, 24.794408)"><path style="stroke:none" d="M 0.742188 -5.613281 C 0.742188 -2.15625 3.222656 0.277344 6.679688 0.277344 C 8.972656 0.277344 10.363281 -0.71875 11.105469 -1.761719 L 9.183594 -3.546875 C 8.648438 -2.804688 7.835938 -2.34375 6.816406 -2.34375 C 5.03125 -2.34375 3.78125 -3.664062 3.78125 -5.613281 C 3.78125 -7.558594 5.03125 -8.859375 6.816406 -8.859375 C 7.835938 -8.859375 8.648438 -8.417969 9.183594 -7.652344 L 11.105469 -9.4375 C 10.363281 -10.480469 8.972656 -11.476562 6.679688 -11.476562 C 3.222656 -11.476562 0.742188 -9.042969 0.742188 -5.613281 Z M 0.742188 -5.613281 "/></g></g><g style="fill:#292c56;fill-opacity:1;"><g transform="translate(72.251955, 24.794408)"><path style="stroke:none" d="M 11.988281 0 L 11.988281 -7.953125 C 11.988281 -10.132812 10.804688 -11.476562 8.347656 -11.476562 C 6.515625 -11.476562 5.125 -10.597656 4.40625 -9.738281 L 4.40625 -15.464844 L 1.460938 -15.464844 L 1.460938 0 L 4.40625 0 L 4.40625 -7.535156 C 4.914062 -8.207031 5.820312 -8.859375 6.957031 -8.859375 C 8.230469 -8.859375 9.042969 -8.371094 9.042969 -6.816406 L 9.042969 0 Z M 11.988281 0 "/></g></g><g style="fill:#292c56;fill-opacity:1;"><g transform="translate(85.700415, 24.794408)"><path style="stroke:none" d="M 6.65625 0.277344 C 10.363281 0.277344 12.589844 -2.410156 12.589844 -5.613281 C 12.589844 -8.789062 10.363281 -11.476562 6.65625 -11.476562 C 2.96875 -11.476562 0.742188 -8.789062 0.742188 -5.613281 C 0.742188 -2.410156 2.96875 0.277344 6.65625 0.277344 Z M 6.65625 -2.34375 C 4.824219 -2.34375 3.804688 -3.847656 3.804688 -5.613281 C 3.804688 -7.351562 4.824219 -8.859375 6.65625 -8.859375 C 8.488281 -8.859375 9.53125 -7.351562 9.53125 -5.613281 C 9.53125 -3.847656 8.488281 -2.34375 6.65625 -2.34375 Z M 6.65625 -2.34375 "/></g></g><g style="fill:#292c56;fill-opacity:1;"><g transform="translate(99.00975, 24.794408)"><path style="stroke:none" d="M 4.40625 0 L 4.40625 -15.464844 L 1.460938 -15.464844 L 1.460938 0 Z M 4.40625 0 "/></g></g><g style="fill:#292c56;fill-opacity:1;"><g transform="translate(104.876062, 24.794408)"><path style="stroke:none" d="M 11.128906 0 L 11.128906 -7.234375 C 11.128906 -10.457031 8.789062 -11.476562 6.238281 -11.476562 C 4.476562 -11.476562 2.714844 -10.921875 1.34375 -9.714844 L 2.457031 -7.746094 C 3.410156 -8.625 4.523438 -9.066406 5.726562 -9.066406 C 7.210938 -9.066406 8.183594 -8.324219 8.183594 -7.1875 L 8.183594 -5.632812 C 7.445312 -6.539062 6.121094 -7.003906 4.636719 -7.003906 C 2.851562 -7.003906 0.742188 -6.050781 0.742188 -3.433594 C 0.742188 -0.925781 2.851562 0.277344 4.636719 0.277344 C 6.097656 0.277344 7.421875 -0.253906 8.183594 -1.160156 L 8.183594 0 Z M 8.183594 -2.691406 C 7.699219 -2.039062 6.769531 -1.714844 5.820312 -1.714844 C 4.660156 -1.714844 3.710938 -2.320312 3.710938 -3.363281 C 3.710938 -4.429688 4.660156 -5.054688 5.820312 -5.054688 C 6.769531 -5.054688 7.699219 -4.730469 8.183594 -4.082031 Z M 8.183594 -2.691406 "/></g></g><g style="fill:#292c56;fill-opacity:1;"><g transform="translate(117.466599, 24.794408)"><path style="stroke:none" d="M 4.40625 0 L 4.40625 -7.398438 C 4.894531 -8.117188 6.191406 -8.648438 7.164062 -8.648438 C 7.488281 -8.648438 7.769531 -8.625 7.976562 -8.578125 L 7.976562 -11.453125 C 6.585938 -11.453125 5.195312 -10.667969 4.40625 -9.667969 L 4.40625 -11.199219 L 1.460938 -11.199219 L 1.460938 0 Z M 4.40625 0 "/></g></g><g style="fill:#5170ff;fill-opacity:1;"><g transform="translate(125.824758, 24.794408)"><path style="stroke:none" d="M 15.953125 0 L 9.996094 -15.464844 L 5.867188 -15.464844 L -0.117188 0 L 3.5 0 L 4.476562 -2.667969 L 11.386719 -2.667969 L 12.359375 0 Z M 10.480469 -5.519531 L 5.355469 -5.519531 L 7.929688 -12.613281 Z M 10.480469 -5.519531 "/></g></g><g style="fill:#5170ff;fill-opacity:1;"><g transform="translate(141.684665, 24.794408)"><path style="stroke:none" d="M 4.824219 0 L 4.824219 -15.464844 L 1.53125 -15.464844 L 1.53125 0 Z M 4.824219 0 "/></g></g><g clip-rule="nonzero" clip-path="url(#a5cdfc5a0a)"><path style=" stroke:none;fill-rule:nonzero;fill:#000000;fill-opacity:1;" d="M 34.964844 35.695312 L 11.496094 35.695312 C 6.265625 35.695312 2.023438 31.503906 2.023438 26.339844 C 2.023438 21.171875 6.265625 16.980469 11.496094 16.980469 L 35.035156 16.980469 C 40.195312 16.980469 44.4375 21.171875 44.4375 26.339844 C 44.4375 31.503906 40.195312 35.695312 34.964844 35.695312 Z M 11.496094 18.65625 C 7.183594 18.65625 3.71875 22.078125 3.71875 26.339844 C 3.71875 30.597656 7.183594 34.019531 11.496094 34.019531 L 35.035156 34.019531 C 39.347656 34.019531 42.8125 30.597656 42.8125 26.339844 C 42.8125 22.078125 39.347656 18.65625 35.035156 18.65625 Z M 11.496094 18.65625 "/></g><path style=" stroke:none;fill-rule:nonzero;fill:#000000;fill-opacity:1;" d="M 18.210938 27.734375 C 17.929688 27.734375 17.644531 27.59375 17.503906 27.386719 C 16.9375 26.546875 16.019531 26.058594 15.03125 26.058594 C 14.039062 26.058594 13.121094 26.546875 12.554688 27.386719 C 12.273438 27.804688 11.777344 27.875 11.355469 27.59375 C 10.929688 27.316406 10.859375 26.828125 11.140625 26.40625 C 11.988281 25.152344 13.476562 24.382812 15.03125 24.382812 C 16.585938 24.382812 18.070312 25.152344 18.917969 26.40625 C 19.199219 26.828125 19.058594 27.316406 18.707031 27.59375 C 18.5625 27.664062 18.421875 27.734375 18.210938 27.734375 Z M 18.210938 27.734375 "/><path style=" stroke:none;fill-rule:nonzero;fill:#000000;fill-opacity:1;" d="M 34.824219 27.734375 C 34.539062 27.734375 34.257812 27.59375 34.117188 27.386719 C 33.550781 26.546875 32.632812 26.058594 31.640625 26.058594 C 30.652344 26.058594 29.734375 26.546875 29.167969 27.386719 C 28.886719 27.804688 28.390625 27.875 27.964844 27.59375 C 27.542969 27.316406 27.472656 26.828125 27.753906 26.40625 C 28.601562 25.152344 30.085938 24.382812 31.640625 24.382812 C 33.195312 24.382812 34.679688 25.152344 35.53125 26.40625 C 35.8125 26.828125 35.671875 27.316406 35.316406 27.59375 C 35.105469 27.664062 34.964844 27.734375 34.824219 27.734375 Z M 34.824219 27.734375 "/><g clip-rule="nonzero" clip-path="url(#b322c1894a)"><path style=" stroke:none;fill-rule:evenodd;fill:#0e0e0e;fill-opacity:1;" d="M 2.03125 8.757812 L 22.9375 0.796875 L 43.871094 8.757812 L 33.222656 12.832031 L 33.222656 9.632812 C 33.222656 7.28125 27.882812 6.195312 22.9375 6.195312 C 17.988281 6.195312 12.648438 7.28125 12.648438 9.632812 L 12.648438 12.832031 Z M 2.03125 8.757812 "/></g><path style=" stroke:none;fill-rule:evenodd;fill:#5170ff;fill-opacity:1;" d="M 22.933594 13.472656 C 27.539062 13.472656 32.386719 14.21875 34.617188 15.792969 L 34.617188 9.933594 C 34.617188 7.261719 28.574219 6.027344 22.933594 6.027344 C 17.328125 6.027344 11.285156 7.261719 11.285156 9.933594 L 11.285156 15.792969 C 13.515625 14.21875 18.355469 13.472656 22.933594 13.472656 Z M 22.933594 13.472656 "/><g clip-rule="nonzero" clip-path="url(#62f0dc1381)"><path style=" stroke:none;fill-rule:evenodd;fill:#ffbe1a;fill-opacity:1;" d="M 41.3125 19.675781 C 41.78125 19.296875 42.089844 18.699219 42.089844 18.011719 C 42.089844 17.148438 41.601562 16.394531 40.902344 16.070312 L 40.785156 7.59375 L 39.300781 7.03125 L 39.390625 16.015625 C 38.636719 16.285156 38.097656 17.09375 38.097656 18.011719 C 38.097656 18.847656 38.523438 19.546875 39.167969 19.890625 C 38.921875 20.460938 38.671875 21.074219 38.429688 21.726562 C 37.949219 23.011719 37.570312 24.238281 37.265625 25.355469 C 38.195312 25.726562 39.210938 25.929688 40.269531 25.929688 C 41.335938 25.929688 42.351562 25.722656 43.285156 25.351562 C 42.984375 24.191406 42.589844 22.882812 42.066406 21.503906 C 41.820312 20.847656 41.566406 20.242188 41.3125 19.675781 Z M 41.3125 19.675781 "/></g></g></svg>