<svg xmlns="http://www.w3.org/2000/svg" xmlns:xlink="http://www.w3.org/1999/xlink" width="50" zoomAndPan="magnify" viewBox="0 0 37.5 30.000001" height="40" preserveAspectRatio="xMidYMid meet" version="1.2"><defs><clipPath id="d3d208eacf"><path d="M 0.929688 13.210938 L 36.085938 13.210938 L 36.085938 29 L 0.929688 29 Z M 0.929688 13.210938 "/></clipPath><clipPath id="5c2624906b"><path d="M 0.929688 0 L 36.085938 0 L 36.085938 11 L 0.929688 11 Z M 0.929688 0 "/></clipPath><clipPath id="eeccf61b54"><path d="M 30 5 L 36 5 L 36 21.09375 L 30 21.09375 Z M 30 5 "/></clipPath></defs><g id="013ea17199"><g clip-rule="nonzero" clip-path="url(#d3d208eacf)"><path style=" stroke:none;fill-rule:nonzero;fill:#000000;fill-opacity:1;" d="M 28.234375 28.972656 L 8.78125 28.972656 C 4.445312 28.972656 0.929688 25.457031 0.929688 21.121094 C 0.929688 16.785156 4.445312 13.269531 8.78125 13.269531 L 28.292969 13.269531 C 32.570312 13.269531 36.085938 16.785156 36.085938 21.121094 C 36.085938 25.457031 32.570312 28.972656 28.234375 28.972656 Z M 8.78125 14.675781 C 5.207031 14.675781 2.335938 17.546875 2.335938 21.121094 C 2.335938 24.695312 5.207031 27.566406 8.78125 27.566406 L 28.292969 27.566406 C 31.867188 27.566406 34.738281 24.695312 34.738281 21.121094 C 34.738281 17.546875 31.867188 14.675781 28.292969 14.675781 Z M 8.78125 14.675781 "/></g><path style=" stroke:none;fill-rule:nonzero;fill:#000000;fill-opacity:1;" d="M 14.347656 22.292969 C 14.113281 22.292969 13.878906 22.175781 13.761719 22 C 13.292969 21.296875 12.53125 20.886719 11.710938 20.886719 C 10.890625 20.886719 10.128906 21.296875 9.660156 22 C 9.425781 22.351562 9.015625 22.410156 8.664062 22.175781 C 8.3125 21.941406 8.253906 21.53125 8.488281 21.179688 C 9.191406 20.125 10.421875 19.480469 11.710938 19.480469 C 13 19.480469 14.230469 20.125 14.933594 21.179688 C 15.167969 21.53125 15.050781 21.941406 14.757812 22.175781 C 14.640625 22.234375 14.523438 22.292969 14.347656 22.292969 Z M 14.347656 22.292969 "/><path style=" stroke:none;fill-rule:nonzero;fill:#000000;fill-opacity:1;" d="M 28.117188 22.292969 C 27.882812 22.292969 27.648438 22.175781 27.53125 22 C 27.0625 21.296875 26.300781 20.886719 25.480469 20.886719 C 24.660156 20.886719 23.898438 21.296875 23.429688 22 C 23.195312 22.351562 22.785156 22.410156 22.433594 22.175781 C 22.082031 21.941406 22.023438 21.53125 22.257812 21.179688 C 22.960938 20.125 24.191406 19.480469 25.480469 19.480469 C 26.769531 19.480469 28 20.125 28.703125 21.179688 C 28.9375 21.53125 28.820312 21.941406 28.527344 22.175781 C 28.351562 22.234375 28.234375 22.292969 28.117188 22.292969 Z M 28.117188 22.292969 "/><g clip-rule="nonzero" clip-path="url(#5c2624906b)"><path style=" stroke:none;fill-rule:evenodd;fill:#0e0e0e;fill-opacity:1;" d="M 0.929688 6.683594 L 18.472656 0 L 36.039062 6.683594 L 27.105469 10.101562 L 27.105469 7.417969 C 27.105469 5.441406 22.625 4.53125 18.472656 4.53125 C 14.320312 4.53125 9.839844 5.441406 9.839844 7.417969 L 9.839844 10.101562 Z M 0.929688 6.683594 "/></g><path style=" stroke:none;fill-rule:evenodd;fill:#5170ff;fill-opacity:1;" d="M 18.46875 10.640625 C 22.335938 10.640625 26.402344 11.261719 28.273438 12.585938 L 28.273438 7.667969 C 28.273438 5.425781 23.203125 4.390625 18.46875 4.390625 C 13.765625 4.390625 8.695312 5.425781 8.695312 7.667969 L 8.695312 12.585938 C 10.566406 11.261719 14.628906 10.640625 18.46875 10.640625 Z M 18.46875 10.640625 "/><g clip-rule="nonzero" clip-path="url(#eeccf61b54)"><path style=" stroke:none;fill-rule:evenodd;fill:#ffbe1a;fill-opacity:1;" d="M 33.894531 15.84375 C 34.285156 15.527344 34.542969 15.023438 34.542969 14.449219 C 34.542969 13.722656 34.136719 13.089844 33.550781 12.820312 L 33.449219 5.703125 L 32.207031 5.230469 L 32.28125 12.773438 C 31.648438 13 31.195312 13.679688 31.195312 14.449219 C 31.195312 15.148438 31.554688 15.734375 32.09375 16.023438 C 31.886719 16.503906 31.679688 17.015625 31.472656 17.566406 C 31.070312 18.644531 30.753906 19.671875 30.496094 20.609375 C 31.277344 20.921875 32.128906 21.09375 33.019531 21.09375 C 33.914062 21.09375 34.765625 20.917969 35.546875 20.605469 C 35.296875 19.632812 34.964844 18.535156 34.527344 17.378906 C 34.316406 16.828125 34.105469 16.316406 33.894531 15.84375 Z M 33.894531 15.84375 "/></g></g></svg>